<svg width="188" height="188" viewBox="0 0 188 188" fill="none" xmlns="http://www.w3.org/2000/svg">
<g id="Circle">
<circle id="Ellipse 26" opacity="0.1" cx="94" cy="93.8789" r="88" fill="#1F1D2B" stroke="white" stroke-width="11.4783"/>
<circle id="Ellipse 28" opacity="0.05" cx="94.0003" cy="93.8792" r="76.5217" fill="#1F1D2B" stroke="white" stroke-width="11.4783"/>
<circle id="Ellipse 29" opacity="0.1" cx="93.9998" cy="93.8787" r="65.0435" fill="#1F1D2B" stroke="white" stroke-width="11.4783"/>
<circle id="Ellipse 30" opacity="0.05" cx="94" cy="93.8789" r="53.5652" fill="#1F1D2B" stroke="white" stroke-width="11.4783"/>
<path id="Ellipse 31" d="M6 93.8789C6 142.48 45.3989 181.879 94 181.879C142.601 181.879 182 142.48 182 93.8789C182 45.2778 142.601 5.87891 94 5.87891" stroke="#FFB800" stroke-width="11.4783" stroke-linecap="round"/>
<path id="Ellipse 32" d="M93.5702 170.184C135.831 170.422 170.283 136.355 170.521 94.0943C170.759 51.8332 136.692 17.3811 94.4312 17.1433" stroke="#FFA900" stroke-width="11.4783" stroke-linecap="round"/>
<path id="Ellipse 33" d="M94.4392 28.2834C105.782 28.2834 116.927 31.2495 126.769 36.8871C136.611 42.5248 144.808 50.6382 150.546 60.4221C156.284 70.206 159.363 81.3203 159.479 92.6621C159.595 104.004 156.743 115.179 151.206 125.078C145.67 134.977 137.641 143.256 127.916 149.094C118.191 154.932 107.109 158.125 95.7688 158.357C84.4288 158.589 73.2253 155.851 63.2701 150.416C53.3149 144.981 44.954 137.036 39.0172 127.372" stroke="#DF8109" stroke-width="11.4783" stroke-linecap="round"/>
</g>
</svg>
