<svg width="16" height="16" viewBox="0 0 16 16" fill="none" xmlns="http://www.w3.org/2000/svg">
<g id="Iconly/Light outline/Edit">
<g id="Edit">
<path id="Vector" d="M14.9512 14.0073C15.2543 14.0073 15.5 14.2481 15.5 14.5452C15.5 14.8176 15.2935 15.0426 15.0257 15.0783L14.9512 15.0832H9.22583C8.92274 15.0832 8.67705 14.8423 8.67705 14.5452C8.67705 14.2729 8.8835 14.0478 9.15136 14.0122L9.22583 14.0073H14.9512ZM9.38269 1.68035C10.4217 0.661888 12.1069 0.661888 13.1459 1.68035L14.2245 2.73767C15.2635 3.75613 15.2635 5.40804 14.2245 6.42651L6.11717 14.3737C5.65359 14.8281 5.02506 15.0831 4.36901 15.0831H1.04878C0.740346 15.0831 0.492487 14.834 0.500174 14.5317L0.583693 11.2477C0.600298 10.627 0.859392 10.0353 1.30722 9.59629L9.38269 1.68035ZM8.755 3.81567L2.08332 10.357C1.83438 10.6011 1.69012 10.9306 1.68089 11.2752L1.61121 14.0068L4.36901 14.0072C4.69352 14.0072 5.00559 13.8952 5.2519 13.693L5.34108 13.6129L12.0458 7.04067L8.755 3.81567ZM12.3698 2.44111C11.7594 1.84281 10.7691 1.84281 10.1588 2.44111L9.53167 3.05484L12.8217 6.27984L13.4484 5.66574C14.0249 5.10068 14.0569 4.20344 13.5445 3.60147L13.4484 3.49843L12.3698 2.44111Z" fill="#FFCA40"/>
</g>
</g>
</svg>
