<svg width="20" height="20" viewBox="0 0 20 20" fill="none" xmlns="http://www.w3.org/2000/svg">
<g id="Iconly/Light outline/2 User">
<g id="2 User">
<path id="Vector" d="M7.59124 12.4563L7.91103 12.4576C12.5555 12.4981 15.1832 13.4361 15.1832 15.9983C15.1832 18.5061 12.6648 19.4736 8.22339 19.5546L7.59124 19.5603C2.74691 19.5603 0.000244141 18.6394 0.000244141 16.0183C0.000244141 13.3937 2.75784 12.4563 7.59124 12.4563ZM7.59124 13.9563C3.57389 13.9563 1.50024 14.6612 1.50024 16.0183C1.50024 17.3667 3.56892 18.0603 7.59124 18.0603C11.6089 18.0603 13.6832 17.3552 13.6832 15.9983C13.6832 14.6505 11.6127 13.9563 7.59124 13.9563ZM15.5869 11.7481C16.1675 11.7876 16.7447 11.8708 17.2994 11.9938C18.4874 12.2301 19.3707 12.6713 19.7754 13.5204C20.0743 14.1491 20.0743 14.8806 19.7755 15.5092C19.373 16.3563 18.4989 16.7942 17.3041 17.04C16.8984 17.1234 16.5019 16.8622 16.4184 16.4565C16.335 16.0507 16.5962 15.6542 17.0019 15.5707C17.7708 15.4126 18.2825 15.1562 18.4207 14.8654C18.5258 14.6441 18.5258 14.3856 18.421 14.165C18.2819 13.8732 17.7675 13.6163 16.9909 13.4616C16.4936 13.3515 15.9907 13.279 15.4852 13.2446C15.0719 13.2165 14.7597 12.8587 14.7878 12.4455C14.8159 12.0322 15.1737 11.72 15.5869 11.7481ZM7.59124 0.499756C10.4393 0.499756 12.7262 2.78636 12.7262 5.63376C12.7262 8.48197 10.4395 10.7688 7.59124 10.7688C4.74317 10.7688 2.45724 8.48211 2.45724 5.63376C2.45724 2.78622 4.74335 0.499756 7.59124 0.499756ZM14.0199 1.56936C16.2548 1.56936 18.0669 3.38183 18.0669 5.61636C18.0669 7.85157 16.2552 9.66336 14.0199 9.66336C13.6057 9.66336 13.2699 9.32757 13.2699 8.91336C13.2699 8.49914 13.6057 8.16336 14.0199 8.16336C15.4267 8.16336 16.5669 7.02314 16.5669 5.61636C16.5669 4.21019 15.4264 3.06936 14.0199 3.06936C13.6057 3.06936 13.2699 2.73357 13.2699 2.31936C13.2699 1.90514 13.6057 1.56936 14.0199 1.56936ZM7.59124 1.99976C5.57183 1.99976 3.95724 3.6146 3.95724 5.63376C3.95724 7.65379 5.5717 9.26876 7.59124 9.26876C9.61103 9.26876 11.2262 7.65354 11.2262 5.63376C11.2262 3.61484 9.6109 1.99976 7.59124 1.99976Z" fill="#65B0F6"/>
</g>
</g>
</svg>
